<?xml version="1.0" standalone="no"?>
<!DOCTYPE svg PUBLIC "-//W3C//DTD SVG 20010904//EN"
 "http://www.w3.org/TR/2001/REC-SVG-20010904/DTD/svg10.dtd">
<svg version="1.0" xmlns="http://www.w3.org/2000/svg"
 width="200.000000pt" height="83.000000pt" viewBox="0 0 200.000000 83.000000"
 preserveAspectRatio="xMidYMid meet">

<g transform="translate(0.000000,83.000000) scale(0.100000,-0.100000)"
fill="#000000" stroke="none">
<path d="M1684 718 c22 -78 22 -80 -24 -119 -25 -21 -42 -40 -39 -43 6 -7 57
-14 101 -15 l36 -1 13 -70 c8 -46 17 -70 26 -70 7 0 13 1 13 3 0 1 9 27 19 57
l18 55 46 3 c26 2 47 8 47 13 0 6 -11 27 -25 47 -18 26 -25 50 -25 84 0 27 -3
48 -6 48 -3 0 -25 -5 -49 -11 -39 -10 -47 -9 -87 15 -56 33 -72 33 -64 4z"/>
<path d="M119 671 c-16 -16 -29 -34 -29 -40 0 -7 35 -11 100 -11 l100 0 0
-264 c0 -237 2 -266 17 -284 10 -11 28 -23 41 -27 l22 -6 0 290 0 291 69 0
c38 0 77 3 86 6 14 6 45 53 45 69 0 3 -95 5 -211 5 l-211 0 -29 -29z"/>
<path d="M840 406 c0 -201 1 -215 21 -240 11 -14 29 -26 40 -26 18 0 19 9 19
215 0 216 0 216 -25 240 -13 14 -31 25 -40 25 -13 0 -15 -28 -15 -214z"/>
<path d="M510 470 c-26 -26 -28 -75 -2 -65 9 4 40 10 69 12 46 5 55 2 77 -20
45 -45 36 -52 -65 -52 -90 0 -91 0 -120 -33 -40 -44 -40 -99 -1 -143 38 -42
112 -51 170 -21 33 17 40 18 48 6 5 -8 23 -16 39 -17 l30 -2 0 135 c0 152 -10
181 -72 206 -51 22 -149 18 -173 -6z m163 -187 c15 -9 6 -45 -18 -68 -46 -47
-135 -27 -135 29 0 40 37 58 105 49 22 -3 43 -7 48 -10z"/>
<path d="M1061 473 c-11 -10 -22 -29 -23 -43 -2 -20 1 -24 17 -22 93 14 116
14 140 -2 14 -9 25 -26 25 -39 0 -21 -3 -22 -72 -19 -56 2 -81 -1 -108 -15
-70 -36 -74 -143 -6 -184 42 -25 111 -25 155 2 29 17 35 18 45 5 11 -15 27
-19 58 -17 16 1 18 13 15 128 -3 144 -15 180 -73 208 -45 21 -146 20 -173 -2z
m163 -193 c14 -14 -13 -66 -40 -79 -33 -15 -76 -14 -98 2 -26 19 -18 68 14 85
26 13 107 8 124 -8z"/>
<path d="M1390 309 l0 -180 38 3 37 3 5 123 c5 115 7 125 29 143 28 22 69 25
97 5 16 -12 20 -31 24 -121 5 -97 8 -109 29 -126 48 -39 51 -31 51 122 l0 141
-34 34 c-30 30 -40 34 -84 34 -39 0 -57 -6 -79 -24 l-28 -24 -22 24 c-12 13
-31 24 -43 24 -19 0 -20 -5 -20 -181z"/>
</g>
</svg>
