<?xml version="1.0" encoding="utf-8"?>
<!-- Generator: Adobe Illustrator 23.0.6, SVG Export Plug-In . SVG Version: 6.00 Build 0)  -->
<svg version="1.1" id="Layer_1" xmlns="http://www.w3.org/2000/svg" xmlns:xlink="http://www.w3.org/1999/xlink" x="0px" y="0px"
	 viewBox="0 0 128 128" style="enable-background:new 0 0 128 128;" xml:space="preserve">
<style type="text/css">
	.st0{fill:#005086;}
	.st1{fill:#B8D8D3;}
	.st2{fill:#2086A5;}
	.st3{fill:#EABFA2;}
	.st4{fill:#318FB5;}
	.st5{fill:#172956;}
</style>
<title>CANDIDATE</title>
<g>
	<path class="st0" d="M106.5,63.1c-0.8-15.8-14.2-28.1-30-27.3c-14.8,0.7-26.6,12.5-27.3,27.3c0,0.4,0,0.9,0,1.3
		c0,5.7,1.7,11.3,4.8,16.1L35.6,98.8c-2.1,2.2-2.1,5.8,0.1,7.9c2.2,2.1,5.6,2.1,7.8,0l18.3-18.3c13.2,8.8,31,5.3,39.8-7.9
		c1.8-2.7,3.1-5.6,3.9-8.7c0.6-2.5,0.9-5,0.9-7.5C106.5,63.8,106.5,63.4,106.5,63.1z"/>
	<path class="st1" d="M93.5,80.2C93,80.6,92.5,81,92,81.5c-7.5,6.3-18.3,6.9-26.4,1.5c-0.7-0.5-1.4-1-2.1-1.5
		c-0.5-0.4-1-0.8-1.4-1.3c-1.1-1.1-2-2.2-2.9-3.5c-6.7-10.2-3.9-24,6.3-30.7s24-3.9,30.7,6.3C102.1,61.1,100.9,72.7,93.5,80.2
		L93.5,80.2z"/>
	<path class="st2" d="M29.6,39.6h3.3c6.1,0,11.1,4.9,11.1,11.1l0,0v5.4l0,0H18.6l0,0v-5.4C18.6,44.5,23.5,39.6,29.6,39.6z"/>
	<path class="st3" d="M39.6,31.3c0,1-0.2,2-0.5,3c-1.6,4.3-6.4,6.5-10.7,4.9s-6.5-6.4-4.9-10.7c1.2-3.3,4.3-5.4,7.8-5.4
		C35.9,23,39.6,26.7,39.6,31.3z"/>
	<g>
		<path class="st4" d="M92,81.5c-7.5,6.3-18.3,6.9-26.4,1.5c-0.7-0.5-1.4-1-2.1-1.5c1.1-7.9,8.4-13.4,16.2-12.3
			C86.1,70.1,91.2,75.1,92,81.5L92,81.5z"/>
		<path class="st3" d="M87.2,59.6c0,1.1-0.2,2.3-0.6,3.4c-1.8,4.9-7.3,7.3-12.1,5.5c-4.9-1.8-7.3-7.3-5.5-12.1
			c1.8-4.9,7.3-7.3,12.1-5.5C84.8,52.2,87.2,55.7,87.2,59.6z"/>
	</g>
	<path class="st5" d="M45.8,56.1v-5.4c0-5.1-3.1-9.8-7.8-11.8c4.2-3.7,4.6-10,1-14.2c-1.9-2.2-4.7-3.4-7.6-3.4c-2.1,0-4.2,0.7-6,2
		c-0.8,0.6-0.9,1.7-0.4,2.4s1.7,0.9,2.4,0.4l0,0c2-1.5,4.7-1.7,7-0.6c3,1.5,4.3,5,3.1,8.2c-1.7,4.4-6.1,4.2-6.2,4.2
		c-4.4,0-7.5-4.3-6.3-8.5c0.3-0.9-0.2-1.9-1.2-2.2c-0.9-0.3-1.9,0.2-2.2,1.2l0,0c-1.1,3.8,0.1,7.9,3,10.5c-4.7,2-7.8,6.7-7.8,11.8
		v5.4c0,1,0.8,1.8,1.8,1.8H44C45,57.8,45.8,57,45.8,56.1C45.8,56.1,45.8,56.1,45.8,56.1z M42.3,54.3H20.3v-3.7
		c0-5.1,4.2-9.3,9.3-9.3c0.1,0,3.5,0,3.3,0c5.1,0,9.3,4.2,9.3,9.3L42.3,54.3z M96.8,86c0.6,0.8,0.5,1.9-0.3,2.5c0,0,0,0,0,0
		c-0.4,0.3-0.8,0.6-1.2,0.9c-0.8,0.6-1.9,0.4-2.4-0.4c-0.6-0.8-0.4-1.9,0.4-2.5c0.4-0.3,0.7-0.5,1.1-0.8
		C95.1,85.1,96.2,85.3,96.8,86C96.8,86,96.8,86,96.8,86z M101.7,64.5c0-13.2-10.7-23.9-23.9-23.9c-13.3,0-23.9,10.8-23.9,23.9
		c0,13.2,10.7,23.9,23.9,23.9C91.2,88.4,101.7,77.5,101.7,64.5z M77.1,84.9c-4.2-0.1-8.4-1.6-11.7-4.1c1.5-6.8,8.2-11.1,15-9.7
		c4.8,1,8.6,4.8,9.7,9.6C86.1,83.7,81.6,85,77.1,84.9L77.1,84.9z M77.8,67.3c-4.2,0-7.7-3.4-7.7-7.7c0-4.2,3.4-7.7,7.7-7.7
		c0,0,0,0,0,0c4.2,0,7.7,3.4,7.7,7.6C85.5,63.9,82,67.3,77.8,67.3L77.8,67.3z M57.4,64.5c0-11.2,9.1-20.4,20.4-20.4
		c11.3,0,20.5,9.1,20.5,20.4c0,4.9-1.7,9.7-5.2,13.6c-1.5-4.2-4.6-7.6-8.7-9.4c5-3.6,6.2-10.6,2.6-15.6c-3.6-5-10.6-6.2-15.6-2.6
		C65,55,65,64.2,71.3,68.7c-4.1,1.8-7.2,5.2-8.7,9.4C59.1,74.2,57.4,69.7,57.4,64.5z M108.3,64.1c0.1,7-2.3,14-6.9,19.7
		c-0.6,0.7-1.7,0.8-2.5,0.2c-0.7-0.6-0.8-1.7-0.2-2.4c4.1-4.9,6.2-11.1,6.1-17.4c0-14.9-12.7-27.4-28.2-26.6
		c-14.4,0.7-25.7,12.6-25.7,26.8c0,5.4,1.5,10.6,4.5,15.1c0.5,0.7,0.4,1.6-0.2,2.2L36.8,100c-1.5,1.5-1.5,3.9,0,5.4
		c1.5,1.5,3.9,1.5,5.4,0l18.3-18.3c0.6-0.6,1.5-0.7,2.2-0.2c7,4.7,15.9,5.8,23.9,3.1c0.9-0.3,1.9,0.2,2.2,1.1
		c0.3,0.9-0.2,1.9-1.1,2.2c-8.6,3-18,2-25.7-2.7l-17.4,17.3c-2.9,2.9-7.5,2.9-10.4,0c0,0,0,0,0,0c-2.9-2.9-2.9-7.5,0-10.4l17.4-17.4
		c-3-4.9-4.4-10.4-4.4-15.8c0-17.3,14.5-31.2,31.9-30.3C95.8,34.8,108.3,48.6,108.3,64.1L108.3,64.1z"/>
</g>
</svg>
